<svg width="100%" height="100%" viewBox="0 0 20 20" version="1.1" xmlns="http://www.w3.org/2000/svg" xmlns:xlink="http://www.w3.org/1999/xlink" xml:space="preserve" style="fill-rule:evenodd;clip-rule:evenodd;stroke-linecap:round;stroke-linejoin:round;stroke-miterlimit:1.5;">
<rect id="Logo" x="0" y="0" width="19.2" height="19.2" style="fill:none;"/>
<g id="Shape">
<path d="M0.384,16.355c0.486,-0.702 0.983,-1.4 1.41,-2.14c1.955,-3.391 1.969,-3.388 2.653,-7.251c0.198,-1.122 0.304,-2.259 0.409,-3.393c-0.023,1.003 -0.589,9.091 1.418,9.372c1.156,0.162 2.14,-1.284 2.64,-1.967c0.627,-0.857 1.726,-2.685 1.976,-3.912c0.282,-1.383 0.444,-2.788 0.606,-4.19c-0.096,0.929 -0.191,1.858 -0.253,2.789c-0.175,2.598 -0.526,5.865 0.408,8.326c0.704,1.855 2.116,1.561 2.116,1.561" style="fill:none;stroke:#000;stroke-width:.7px;"/>
<path d="M2.126,9.338c0,0 9.017,-2.546 16.786,-3.102" style="fill:none;stroke:#000;stroke-width:.7px;"/>
</g>
</svg>